<svg xmlns="http://www.w3.org/2000/svg" xmlns:xlink="http://www.w3.org/1999/xlink" width="32" height="32" viewBox="0 0 32 32">
  <defs>
    <clipPath id="clip-path">
      <rect id="mask" width="32" height="32" fill="none"/>
    </clipPath>
  </defs>
  <g id="ico_32_star" clip-path="url(#clip-path)">
    <path id="star" d="M48,64A15.985,15.985,0,0,1,32,48.016,16,16,0,0,1,1.257,54.228,16,16,0,0,1,15.978,32,15.994,15.994,0,0,1,4.687,4.686,15.995,15.995,0,0,1,32,15.984,16.009,16.009,0,1,1,48.017,32,16,16,0,1,1,48,64ZM16,32V48H48V32h0A16.047,16.047,0,0,0,32,47.859h0A16.066,16.066,0,0,0,16.1,32,16.059,16.059,0,0,0,32,16.1,16.038,16.038,0,0,0,48,32h0V16H16V32Z" transform="translate(-16 -16)" fill="#1c1c1b"/>
  </g>
</svg>
