<svg xmlns="http://www.w3.org/2000/svg" xmlns:xlink="http://www.w3.org/1999/xlink" width="26" height="26" viewBox="0 0 26 26">
  <defs>
    <clipPath id="clip-path">
      <rect id="mask" width="26" height="26" fill="none"/>
    </clipPath>
  </defs>
  <g id="ico_26_star_outline" clip-path="url(#clip-path)">
    <g id="star" transform="translate(-13 -13)" fill="none">
      <path d="M39,52A12.989,12.989,0,0,1,26,39.013,13,13,0,0,1,1.021,44.06,13,13,0,0,1,12.981,26,13,13,0,0,1,3.808,3.808,13,13,0,0,1,26,12.987,13.007,13.007,0,1,1,39.014,26,13,13,0,1,1,39,52ZM13,26V39H39V26h0A13.038,13.038,0,0,0,26,38.885h0A13.054,13.054,0,0,0,13.082,26,13.048,13.048,0,0,0,26,13.081,13.031,13.031,0,0,0,39,26h0V13H13V26Z" stroke="none"/>
      <path d="M 39.00048446655273 51.00024032592773 C 40.6205940246582 51.00024032592773 42.19181442260742 50.68310165405273 43.67062377929688 50.05759048461914 C 45.09926223754883 49.45353317260742 46.38288497924805 48.58811187744141 47.48569488525391 47.48554229736328 C 48.58829498291016 46.38271331787109 49.45374298095703 45.09922027587891 50.05795288085938 43.67085266113281 C 50.68337249755859 42.19174194335938 51.00049591064453 40.62030029296875 51.00049591064453 39.00018310546875 C 51.00049591064453 37.38008117675781 50.68337249755859 35.80862045288086 50.05802536010742 34.3296012878418 C 49.4537353515625 32.9011116027832 48.58827590942383 31.61764144897461 47.48586273193359 30.51500129699707 C 46.38277435302734 29.41220283508301 45.09915542602539 28.54679298400879 43.67047500610352 27.94272232055664 C 42.49814987182617 27.44681549072266 41.26748275756836 27.14471626281738 40.00048446655273 27.04084968566895 L 40.00048446655273 40.00018310546875 L 27.04080009460449 40.00018310546875 C 27.14471435546875 41.26797485351562 27.44674682617188 42.49873352050781 27.94247436523438 43.67071151733398 C 28.54675483703613 45.09922027587891 29.41220474243164 46.38271331787109 30.51468467712402 47.48542022705078 C 31.61718368530273 48.58780288696289 32.90082550048828 49.45321273803711 34.33000564575195 50.05764389038086 C 35.80868530273438 50.68310165405273 37.38005447387695 51.00024032592773 39.00048446655273 51.00024032592773 M 13.00000381469727 51.00024032592773 C 14.62043380737305 51.00024032592773 16.19180488586426 50.68310165405273 17.67045402526855 50.05766296386719 C 19.09973335266113 49.45303344726562 20.38321495056152 48.58763122558594 21.48520469665527 47.48554229736328 C 22.58776473999023 46.38275146484375 23.45321464538574 45.09925079345703 24.05744361877441 43.67090225219727 C 24.55318069458008 42.49832153320312 24.85522270202637 41.26754760742188 24.95917129516602 40.00018310546875 L 12.00000381469727 40.00018310546875 L 12.00000381469727 27.04085159301758 C 10.73282814025879 27.14472007751465 9.502191543579102 27.44682884216309 8.329864501953125 27.94278144836426 C 6.901344299316406 28.54678153991699 5.617713928222656 29.41220283508301 4.51479434967041 30.51483154296875 C 3.412224054336548 31.61764144897461 2.546764135360718 32.9011116027832 1.94253408908844 34.32943344116211 C 1.317114114761353 35.80862045288086 1.000004172325134 37.38009262084961 1.000004172325134 39.00018310546875 C 1.000004172325134 40.62024307250977 1.317114114761353 42.19168090820312 1.942474126815796 43.67071151733398 C 2.546754121780396 45.09922027587891 3.412204027175903 46.38271331787109 4.514624118804932 47.48537063598633 C 5.61769437789917 48.58815383911133 6.901324272155762 49.45357131958008 8.33000373840332 50.05764389038086 C 9.808684349060059 50.68310165405273 11.37990379333496 51.00024032592773 13.00000381469727 51.00024032592773 M 25.99807739257812 33.82136154174805 C 27.42374420166016 30.26979827880859 30.26708984375 27.42752647399902 33.81621551513672 26.00125885009766 C 30.26606559753418 24.57650947570801 27.42315292358398 21.73510360717773 25.99795532226562 18.18338966369629 C 24.56986808776855 21.73170471191406 21.72551727294922 24.57482719421387 18.17628860473633 26.00104904174805 C 21.72381591796875 27.42843055725098 24.56962013244629 30.2733325958252 25.99807739257812 33.82136154174805 M 40.00004196166992 24.95942687988281 C 41.26722717285156 24.85560035705566 42.49795913696289 24.5534839630127 43.67062377929688 24.05746269226074 C 45.09915542602539 23.45345115661621 46.38277435302734 22.58804130554199 47.48569488525391 21.48540115356445 C 48.58827590942383 20.38260269165039 49.4537353515625 19.0991325378418 50.05795288085938 17.67080116271973 C 50.68337249755859 16.19162178039551 51.00049591064453 14.62016201019287 51.00049591064453 13.00006198883057 C 51.00049591064453 11.38000202178955 50.68337249755859 9.808562278747559 50.05802536010742 8.329551696777344 C 49.45374298095703 6.901142120361328 48.58827590942383 5.617631912231445 47.48584365844727 4.514862060546875 C 46.38277435302734 3.412022113800049 45.09916305541992 2.546622037887573 43.67049407958984 1.942612051963806 C 42.19181442260742 1.317142128944397 40.6205940246582 1.000002026557922 39.00048446655273 1.000002026557922 C 37.38005447387695 1.000002026557922 35.80867385864258 1.317142128944397 34.33002471923828 1.942602038383484 C 32.90061569213867 2.547252178192139 31.616943359375 3.41267204284668 30.51479339599609 4.514711856842041 C 29.41220474243164 5.617532253265381 28.54675483703613 6.901021957397461 27.94252395629883 8.329421997070312 C 27.44680213928223 9.501693725585938 27.1447582244873 10.73254489898682 27.04081726074219 12.00006198883057 L 40.00052261352539 12.00006198883057 L 40.00004196166992 24.95942687988281 M 12.00000381469727 24.95940780639648 L 12.00000381469727 12.00006198883057 L 24.95919990539551 12.00006198883057 C 24.85528182983398 10.73229026794434 24.55325126647949 9.501559257507324 24.05752372741699 8.329531669616699 C 23.45325469970703 6.901021957397461 22.58780479431152 5.617532253265381 21.48538398742676 4.514902114868164 C 20.38238334655762 3.412232160568237 19.09886360168457 2.546792030334473 17.67048454284668 1.942602038383484 C 16.19181442260742 1.317142128944397 14.62043380737305 1.000002026557922 13.00000381469727 1.000002026557922 C 11.3798942565918 1.000002026557922 9.808684349060059 1.317142128944397 8.329833984375 1.942682027816772 C 6.901334285736084 2.546612024307251 5.617713928222656 3.412022113800049 4.514833927154541 4.514682292938232 C 3.412224054336548 5.617631912231445 2.546754121780396 6.901142120361328 1.94253408908844 8.329372406005859 C 1.317114114761353 9.808562278747559 1.000004172325134 11.38001251220703 1.000004172325134 13.00006198883057 C 1.000004172325134 14.62015247344971 1.317114114761353 16.19162178039551 1.942464113235474 17.6706428527832 C 2.546764135360718 19.0991325378418 3.412224054336548 20.38260269165039 4.514624118804932 21.48524284362793 C 5.617713928222656 22.58804130554199 6.901344299316406 23.45346260070801 8.330123901367188 24.05757141113281 C 9.502005577087402 24.55344581604004 10.73269081115723 24.85554504394531 12.00000381469727 24.95940780639648 M 39.00048446655273 52.00024032592773 C 37.24560546875 52.00024032592773 35.54296493530273 51.65649032592773 33.94043350219727 50.97864151000977 C 32.39160537719727 50.32361221313477 31.00146484375 49.38629150390625 29.80761337280273 48.19257354736328 C 28.61377334594727 46.99847030639648 27.67627334594727 45.60821151733398 27.021484375 44.060302734375 C 26.34521484375 42.46149063110352 26.00195503234863 40.76355361938477 26.00000381469727 39.01337051391602 C 25.99804496765137 40.76410293579102 25.65429496765137 42.46185302734375 24.97851371765137 44.060302734375 C 24.32373428344727 45.60815048217773 23.38623428344727 46.99847030639648 22.19238471984863 48.19257354736328 C 20.99853324890137 49.38653182983398 19.60791397094727 50.3238525390625 18.06005477905273 50.97864151000977 C 16.45752334594727 51.65649032592773 14.75488376617432 52.00024032592773 13.00000381469727 52.00024032592773 C 11.24511432647705 52.00024032592773 9.542974472045898 51.65649032592773 7.940433979034424 50.97864151000977 C 6.392094135284424 50.32397079467773 5.001954078674316 49.38660049438477 3.807614088058472 48.19257354736328 C 2.613774061203003 46.99847030639648 1.676274180412292 45.60821151733398 1.021484136581421 44.060302734375 C 0.3437541425228119 42.45740127563477 4.140625151194399e-06 40.75494384765625 4.140625151194399e-06 39.00018310546875 C 4.140625151194399e-06 37.245361328125 0.3437541425228119 35.54291152954102 1.021484136581421 33.94000244140625 C 1.676274180412292 32.39215087890625 2.613774061203003 31.00189208984375 3.807614088058472 29.80780220031738 C 5.001954078674316 28.61377143859863 6.392094135284424 27.6763916015625 7.940433979034424 27.02173233032227 C 9.537114143371582 26.34625244140625 11.23339366912842 26.00256156921387 12.98144435882568 26.0001220703125 C 11.23291397094727 25.99768257141113 9.536623954772949 25.65393257141113 7.940433979034424 24.97851181030273 C 6.392094135284424 24.3238525390625 5.001954078674316 23.38647270202637 3.807614088058472 22.19244194030762 C 2.613774061203003 20.99835205078125 1.676274180412292 19.60809135437012 1.021484136581421 18.06024169921875 C 0.3437541425228119 16.45733261108398 4.140625151194399e-06 14.75488185882568 4.140625151194399e-06 13.00006198883057 C 4.140625151194399e-06 11.24530220031738 0.3437541425228119 9.542852401733398 1.021484136581421 7.939941883087158 C 1.676274180412292 6.392151832580566 2.613774061203003 5.00189208984375 3.807614088058472 3.807682037353516 C 5.001954078674316 2.613592147827148 6.392094135284424 1.676212072372437 7.940433979034424 1.021612048149109 C 9.542974472045898 0.3437520563602448 11.24511432647705 2.0703125755972e-06 13.00000381469727 2.0703125755972e-06 C 14.75488376617432 2.0703125755972e-06 16.45752334594727 0.3437520563602448 18.06005477905273 1.021612048149109 C 19.60791397094727 1.676332116127014 20.99804496765137 2.613712072372437 22.19238471984863 3.807682037353516 C 23.38623428344727 5.001771926879883 24.32373428344727 6.392032146453857 24.97851371765137 7.939941883087158 C 25.65478324890137 9.538822174072266 25.99804496765137 11.2367525100708 26.00000381469727 12.98688220977783 C 26.00195503234863 11.2359619140625 26.34570503234863 9.538022041320801 27.021484375 7.939941883087158 C 27.67627334594727 6.392032146453857 28.61377334594727 5.001771926879883 29.80761337280273 3.807682037353516 C 31.00146484375 2.613952159881592 32.39209365844727 1.67657208442688 33.94043350219727 1.021612048149109 C 35.54296493530273 0.3437520563602448 37.24560546875 2.0703125755972e-06 39.00048446655273 2.0703125755972e-06 C 40.75537490844727 2.0703125755972e-06 42.45752334594727 0.3437520563602448 44.06006240844727 1.021612048149109 C 45.60839462280273 1.676212072372437 46.99853515625 2.613592147827148 48.19287490844727 3.807682037353516 C 49.38672256469727 5.00189208984375 50.32422256469727 6.392151832580566 50.97900390625 7.939941883087158 C 51.65674591064453 9.542852401733398 52.00049591064453 11.24530220031738 52.00049591064453 13.00006198883057 C 52.00049591064453 14.75488185882568 51.65674591064453 16.45733261108398 50.97900390625 18.06024169921875 C 50.32422256469727 19.60809135437012 49.38672256469727 20.99835205078125 48.19287490844727 22.19244194030762 C 46.99853515625 23.38647270202637 45.60839462280273 24.3238525390625 44.06006240844727 24.97851181030273 C 42.46142578125 25.65472221374512 40.76367568969727 25.99841117858887 39.01367568969727 26.0001220703125 C 40.76416397094727 26.00183296203613 42.4619140625 26.34570121765137 44.06006240844727 27.02173233032227 C 45.60839462280273 27.6763916015625 46.99853515625 28.61377143859863 48.19287490844727 29.80780220031738 C 49.38672256469727 31.00189208984375 50.32422256469727 32.39215087890625 50.97900390625 33.94000244140625 C 51.65674591064453 35.54291152954102 52.00049591064453 37.245361328125 52.00049591064453 39.00018310546875 C 52.00049591064453 40.75494384765625 51.65674591064453 42.45746231079102 50.97900390625 44.060302734375 C 50.32422256469727 45.60821151733398 49.38672256469727 46.99847030639648 48.19287490844727 48.19257354736328 C 46.99853515625 49.38666152954102 45.60839462280273 50.32397079467773 44.06006240844727 50.97864151000977 C 42.45752334594727 51.65649032592773 40.75537490844727 52.00024032592773 39.00048446655273 52.00024032592773 Z M 13.00000381469727 13.00006198883057 L 13.00000381469727 39.00018310546875 L 39.00048446655273 39.00018310546875 L 39.00048446655273 13.00006198883057 L 13.00000381469727 13.00006198883057 Z M 26.00048446655273 38.88525390625 L 25.99951362609863 38.88525390625 C 25.93750381469727 31.82397270202637 20.14257431030273 26.04382133483887 13.08154392242432 26.00036239624023 C 20.16113471984863 25.95624160766602 25.9560546875 20.16131210327148 26.00000381469727 13.08148193359375 C 26.04394340515137 20.20483207702637 31.87548446655273 26.0001220703125 39.00048446655273 26.0001220703125 L 39.00000381469727 26.0001220703125 C 31.8935546875 26.00110244750977 26.06250381469727 31.78094291687012 26.00048446655273 38.88525390625 Z" stroke="none" fill="#1c1c1b"/>
    </g>
  </g>
</svg>
