<svg width="24" height="24" viewBox="0 0 24 24" fill="none" xmlns="http://www.w3.org/2000/svg">
<circle cx="11.3999" cy="11.3999" r="7" fill="white"/>
<path fill-rule="evenodd" clip-rule="evenodd" d="M11.3666 4.39995C7.57424 4.39995 4.49993 7.47426 4.49993 11.2666C4.49993 15.059 7.57424 18.1333 11.3666 18.1333C15.1589 18.1333 18.2333 15.059 18.2333 11.2666C18.2333 7.47426 15.1589 4.39995 11.3666 4.39995ZM3.29993 11.2666C3.29993 6.81152 6.9115 3.19995 11.3666 3.19995C15.8217 3.19995 19.4333 6.81152 19.4333 11.2666C19.4333 13.3057 18.6767 15.168 17.429 16.5883L20.5165 19.6757C20.7508 19.9101 20.7508 20.2899 20.5165 20.5243C20.2822 20.7586 19.9023 20.7586 19.668 20.5243L16.5725 17.4288C15.1675 18.617 13.3507 19.3333 11.3666 19.3333C6.9115 19.3333 3.29993 15.7217 3.29993 11.2666Z" fill="#222222"/>
</svg>
